<svg xmlns="http://www.w3.org/2000/svg" viewBox="0 0 510.7 538.88">
    <title>threeDOT</title>
    <ellipse cx="254.69" cy="249.39" rx="247.81" ry="248.89" style="fill:none;stroke:#25a5d8;stroke-miterlimit:10"/>
    <circle cx="231.61" cy="497.43" r="12.67" style="fill:#fff;stroke:#25a5d8;stroke-miterlimit:10"/>
    <circle cx="497.53" cy="300.33" r="12.67" style="fill:#fff;stroke:#25a5d8;stroke-miterlimit:10"/>
    <circle cx="490.99" cy="325.24" r="12.67" style="fill:#fff;stroke:#25a5d8;stroke-miterlimit:10"/>
    <circle cx="29.98" cy="354.34" r="12.67" style="fill:#fff;stroke:#25a5d8;stroke-miterlimit:10"/>
    <circle cx="20.14" cy="330.44" r="12.67" style="fill:#fff;stroke:#25a5d8;stroke-miterlimit:10"/>
    <circle cx="13.17" cy="305.53" r="12.67" style="fill:#fff;stroke:#25a5d8;stroke-miterlimit:10"/>
    <circle cx="470.24" cy="372.43" r="12.67" style="fill:#fff;stroke:#25a5d8;stroke-miterlimit:10"/>
    <circle cx="456.83" cy="394.72" r="12.67" style="fill:#fff;stroke:#25a5d8;stroke-miterlimit:10"/>
    <circle cx="440.34" cy="414.68" r="12.67" style="fill:#fff;stroke:#25a5d8;stroke-miterlimit:10"/>
    <circle cx="482.17" cy="349.68" r="12.67" style="fill:#fff;stroke:#25a5d8;stroke-miterlimit:10"/>
    <circle cx="422.19" cy="433.1" r="12.67" style="fill:#fff;stroke:#25a5d8;stroke-miterlimit:10"/>
    <circle cx="402.23" cy="449.18" r="12.67" style="fill:#fff;stroke:#25a5d8;stroke-miterlimit:10"/>
    <circle cx="333.44" cy="485.61" r="12.67" style="fill:#fff;stroke:#25a5d8;stroke-miterlimit:10"/>
    <circle cx="308.8" cy="492.7" r="12.67" style="fill:#fff;stroke:#25a5d8;stroke-miterlimit:10"/>
    <circle cx="271.11" cy="510.1" r="28.29" style="fill:#fff;stroke:#25a5d8;stroke-miterlimit:10"/>
    <circle cx="206.27" cy="493.45" r="12.67" style="fill:#fff;stroke:#25a5d8;stroke-miterlimit:10"/>
    <circle cx="133.45" cy="466.39" r="12.67" style="fill:#fff;stroke:#25a5d8;stroke-miterlimit:10"/>
    <circle cx="111.65" cy="452.91" r="12.67" style="fill:#fff;stroke:#25a5d8;stroke-miterlimit:10"/>
    <circle cx="91.62" cy="437.07" r="12.67" style="fill:#fff;stroke:#25a5d8;stroke-miterlimit:10"/>
    <circle cx="73.31" cy="418.7" r="12.67" style="fill:#fff;stroke:#25a5d8;stroke-miterlimit:10"/>
    <circle cx="56.53" cy="398.76" r="12.67" style="fill:#fff;stroke:#25a5d8;stroke-miterlimit:10"/>
    <circle cx="42.05" cy="377.25" r="12.67" style="fill:#fff;stroke:#25a5d8;stroke-miterlimit:10"/>
    <circle cx="374.4" cy="478.25" r="28.29" style="fill:#fff;stroke:#25a5d8;stroke-miterlimit:10"/>
    <circle cx="164.4" cy="493.45" r="28.29" style="fill:#fff;stroke:#25a5d8;stroke-miterlimit:10"/>
</svg>